<?xml version="1.0" encoding="utf-8"?>
<!-- Generator: Adobe Illustrator 19.1.1, SVG Export Plug-In . SVG Version: 6.00 Build 0)  -->
<svg version="1.1" id="_x31_0" xmlns="http://www.w3.org/2000/svg" xmlns:xlink="http://www.w3.org/1999/xlink" x="0px" y="0px"
	 viewBox="0 0 512 512" style="enable-background:new 0 0 512 512;" xml:space="preserve">
<style type="text/css">
	.st0{fill:#374149;}
</style>
<g>
	<path class="st0" d="M469.823,74.253c-74.13-92.937-210.587-98.562-292.19-16.963c-27.834,27.834-45.582,62.062-53.046,97.972
		c-1.969,9.468,1.042,19.303,7.882,26.138l198.202,198.202c6.858,6.858,16.729,9.866,26.22,7.87
		c42.153-8.87,81.974-31.954,111.901-68.838C526.01,248.114,526.447,145.247,469.823,74.253z M355.196,92.802
		c0.524,2.37,0.793,4.765,0.832,7.155c0.004,0.207,0.024,0.414,0.024,0.626c-0.016,17.486-12.542,34.673-32.126,41.641
		c-24.146,8.585-49.84-1.547-57.327-22.686c-7.484-21.139,5.874-45.215,30.025-53.804c24.15-8.586,49.839,1.542,57.331,22.682
		c0.398,1.113,0.706,2.242,0.992,3.37C355.032,92.126,355.122,92.462,355.196,92.802z"/>
	<path class="st0" d="M119.182,226.834c-5.141-5.14-13.89-3.117-16.249,3.762l-10.078,29.369l-16.151,46.679L33.47,349.882
		l-4.406,19.085l4.48,4.48l-22.389,36.333L0,451.034l60.921,60.92l41.254-11.155l36.333-22.389l4.48,4.481l19.158-4.332
		l43.234-43.234l46.758-16.222l29.244-10.074c6.87-2.362,8.886-11.104,3.75-16.241L119.182,226.834z M91.519,359.256
		c-0.152,0.047-0.297,0.114-0.449,0.141c-1.504,0.305-2.961-0.222-3.98-1.226c-0.02-0.02-0.039-0.039-0.058-0.058
		c-1.375-1.406-1.914-3.66-0.566-5.734l43.09-64.666c1.539-2.426,4.992-2.793,7.046-0.738l21.654,21.654
		c1.98,1.981,1.613,5.434-0.738,7.046l-64.74,43.016C92.363,358.971,91.942,359.119,91.519,359.256z M110.291,459.197l-20.67,12.757
		l-19.378,5.281L34.72,441.71l5.281-19.377l12.776-20.702l46.824,46.824L110.291,459.197z"/>
</g>
</svg>
